    <svg xmlns:mydata="http://www.w3.org/2000/svg" mydata:contrastcolor="ccb8ce" mydata:template="Default" mydata:presentation="2.5" mydata:layouttype="undefined" mydata:specialfontid="undefined" mydata:id1="004" mydata:id2="008" mydata:companyname="Cascading Tech Solutions" mydata:companytagline="Technology made Easier" version="1.1" xmlns="http://www.w3.org/2000/svg" xmlns:xlink="http://www.w3.org/1999/xlink" viewBox="0 0 550 470"><g fill="##0c0c0c" fill-rule="none" stroke="none" stroke-width="1" stroke-linecap="butt" stroke-linejoin="miter" stroke-miterlimit="10" stroke-dasharray="" stroke-dashoffset="0" font-family="none" font-weight="none" font-size="none" text-anchor="none" style="mix-blend-mode: normal"><g data-paper-data="{&quot;isGlobalGroup&quot;:true,&quot;bounds&quot;:{&quot;x&quot;:142.94853528869155,&quot;y&quot;:106.00000000000003,&quot;width&quot;:264.10292942261685,&quot;height&quot;:258}}"><g data-paper-data="{&quot;fillRule&quot;:&quot;nonzero&quot;,&quot;fillRuleOriginal&quot;:&quot;evenodd&quot;,&quot;isIcon&quot;:true,&quot;iconStyle&quot;:&quot;standalone&quot;,&quot;selectedEffects&quot;:{&quot;container&quot;:&quot;circle_simple_filledplus&quot;,&quot;transformation&quot;:&quot;&quot;,&quot;pattern&quot;:&quot;&quot;},&quot;bounds&quot;:{&quot;x&quot;:187.49525704240907,&quot;y&quot;:147.49602845747782,&quot;width&quot;:175.00871450011314,&quot;height&quot;:133.6044844358107},&quot;widthRatioIconToContainer&quot;:0.6907108102825186,&quot;heightRatioIconToContainer&quot;:0.7848986480483165,&quot;relativeBoundsIconToContainer&quot;:{&quot;top&quot;:0.0010879138771838406,&quot;left&quot;:-4.0338512916069156e-17},&quot;iconType&quot;:&quot;icon&quot;,&quot;rawIconId&quot;:&quot;224067&quot;,&quot;isDetailed&quot;:false,&quot;blockLetter&quot;:&quot;O&quot;,&quot;suitableAsStandaloneIcon&quot;:false}" fill-rule="evenodd"><path d="M362.48785,236.72365l-0.02188,0.87481l-0.02878,0.87354l-0.038,0.87354l-0.0449,0.87366l-0.05527,0.87227l-0.06333,0.87354l-0.07254,0.87101l-0.0806,0.87112l-0.08981,0.87101l-0.09787,0.86974l-0.10708,0.86859l-0.11629,0.86721l-0.12435,0.86606l-0.13241,0.86468l-0.14162,0.86479l-0.15083,0.86226l-0.16004,0.86099l-0.16925,0.85846l-0.17731,0.85719l-0.18422,0.85593l-0.19573,0.85339l-0.20264,0.85086l-0.213,0.84971l-0.21991,0.84833l-0.22912,0.84326l-0.23833,0.84395l-0.24639,0.83935l-0.2556,0.83819l-0.26251,0.83474l-0.27172,0.83129l-0.27978,0.82898l-0.29014,0.82668l-0.2959,0.82323l-0.30396,0.81977l-0.31317,0.81632l-0.32123,0.81517l-0.32814,0.81056l-0.33735,0.80596l-0.19803,0.46515l-0.34771,0.79905l-0.35577,0.7979l-0.36498,0.79444l-0.37304,0.79214l-0.37995,0.78753l-0.38916,0.78408l-0.39492,0.78063l-0.40413,0.77487l-0.41104,0.77372l-0.42025,0.76681l-0.42601,0.76451l-0.43522,0.75875l-0.44212,0.7553l-0.45134,0.75184l-0.42946,0.70003h-4.87719l0.45594,-0.69542l0.45018,-0.70118l0.44328,-0.70579l0.43752,-0.71039l0.42831,-0.715l0.42255,-0.7196l0.41334,-0.72191l0.40873,-0.72766l0.39837,-0.73342l0.39262,-0.73457l0.38571,-0.74033l0.37765,-0.74378l0.36959,-0.74724l0.36268,-0.75069l0.35577,-0.7553l0.34771,-0.7576l0.3408,-0.76105l0.33505,-0.76911l0.18652,-0.43752l0.32123,-0.77026l0.31317,-0.77257l0.30741,-0.77717l0.29705,-0.77717l0.2913,-0.78178l0.28208,-0.78523l0.27633,-0.78753l0.26597,-0.78869l0.26021,-0.79329l0.24985,-0.79559l0.24294,-0.7979l0.23603,-0.79905l0.22567,-0.80193l0.21991,-0.80434l0.20955,-0.80688l0.20149,-0.80814l0.19458,-0.81056l0.18537,-0.81321l0.17616,-0.81436l0.1704,-0.81689l0.16004,-0.81689l0.15198,-0.82069l0.14507,-0.82069l0.13471,-0.82323l0.12665,-0.82323l0.11859,-0.82576l0.11053,-0.82564l0.10247,-0.82829l0.09441,-0.82829l0.0852,-0.82944l0.07714,-0.83083l0.06908,-0.83071l0.05987,-0.83198l0.05296,-0.83336l0.0449,-0.83324l0.03454,-0.83324l0.02878,-0.83463l0.02072,-0.83451l0.01151,-0.83451l0.00345,-0.82196v-0.01888l-0.00345,-0.81563l-0.01151,-0.83463l-0.02072,-0.83451l-0.02763,-0.83451l-0.03569,-0.83324l-0.0449,-0.83336l-0.05296,-0.83198l-0.05987,-0.83198l-0.06908,-0.83209l-0.07714,-0.83071l-0.0852,-0.82829l-0.09326,-0.82944l-0.10247,-0.82703l-0.11053,-0.82703l-0.11859,-0.82438l-0.12665,-0.82449l-0.13586,-0.82196l-0.14392,-0.82196l-0.15198,-0.81943l-0.16004,-0.81816l-0.1681,-0.81563l-0.17846,-0.81448l-0.18422,-0.81309l-0.19458,-0.81068l-0.20264,-0.80803l-0.20955,-0.80688l-0.21761,-0.80434l-0.22797,-0.80308l-0.23488,-0.79928l-0.24294,-0.79801l-0.251,-0.79433l-0.25791,-0.79295l-0.26827,-0.79053l-0.27518,-0.78673l-0.28324,-0.78535l-0.29014,-0.78178l-0.2982,-0.77913l-0.30626,-0.77533l-0.31317,-0.77418l-0.31547,-0.75771l-0.33044,-0.76658l-0.33505,-0.76405l-0.34426,-0.76025l-0.35002,-0.75656l-0.35923,-0.75265l-0.36613,-0.75023l-0.37189,-0.74516l-0.3811,-0.74263l-0.38801,-0.73768l-0.39607,-0.73503l-0.40298,-0.73008l-0.40873,-0.72502l-0.41795,-0.72248l-0.4237,-0.71753l-0.43291,-0.71247l-0.43867,-0.70867l-0.44673,-0.70487l-0.45249,-0.69853l-0.4617,-0.69485l-0.4663,-0.69105l-0.47436,-0.68472l-0.48242,-0.68103l-0.48818,-0.67597l-0.49509,-0.66963l-0.502,-0.66583l-0.5089,-0.66088l-0.51581,-0.6557l-0.52157,-0.65087l-0.52848,-0.64442l-0.53423,-0.63947l-0.54344,-0.6344l-0.5469,-0.62934l-0.55381,-0.62427l-0.56072,-0.61805l-0.56647,-0.61299l-0.57223,-0.60804l-0.57799,-0.6017l-0.5872,-0.59906l-0.3339,-0.33608l-0.59295,-0.58789l-0.59871,-0.58155l-0.60332,-0.57649l-0.61022,-0.56889l-0.61598,-0.56394l-0.62059,-0.55761l-0.62519,-0.55139l-0.63095,-0.54494l-0.63671,-0.53872l-0.64246,-0.53251l-0.64707,-0.52617l-0.65167,-0.51984l-0.65858,-0.51224l-0.66204,-0.50603l-0.66664,-0.49969l-0.67355,-0.49221l-0.677,-0.48588l-0.68276,-0.47828l-0.68852,-0.47206l-0.69082,-0.46446l-0.69773,-0.45824l-0.70118,-0.45053l-0.70579,-0.44316l-0.70924,-0.43671l-0.715,-0.42796l-0.72075,-0.42175l-0.72306,-0.4153l-0.72651,-0.40666l-0.73227,-0.40021l-0.73687,-0.39146l-0.73918,-0.38513l-0.74378,-0.37765l-0.74724,-0.37132l-0.75069,-0.36257l-0.7553,-0.35497l-0.7576,-0.34863l-0.7622,-0.33988l-0.76911,-0.33482l-0.43637,-0.18629l-0.77026,-0.321l-0.77257,-0.31467l-0.77717,-0.3058l-0.77832,-0.29832l-0.78178,-0.29083l-0.78408,-0.28324l-0.78753,-0.27437l-0.78984,-0.26689l-0.79329,-0.25929l-0.79444,-0.25169l-0.7979,-0.24294l-0.79905,-0.23419l-0.80308,-0.22774l-0.80434,-0.21782l-0.80561,-0.2102l-0.8093,-0.20265l-0.81068,-0.19384l-0.81309,-0.18504l-0.81448,-0.17748l-0.81563,-0.16866l-0.81816,-0.16112l-0.81943,-0.1523l-0.82069,-0.14349l-0.82323,-0.13594l-0.82323,-0.12713l-0.82564,-0.11833l-0.82703,-0.11076l-0.82703,-0.10196l-0.82818,-0.09315l-0.82956,-0.08559l-0.83071,-0.07804l-0.83209,-0.06798l-0.83198,-0.06041l-0.83198,-0.05287l-0.83336,-0.04405l-0.83451,-0.03651l-0.83324,-0.02769l-0.83463,-0.02014l-0.83578,-0.01258l-0.82069,-0.00378l-0.83578,0.00378l-0.83451,0.01258l-0.83451,0.02014l-0.83336,0.02769l-0.83324,0.03524l-0.83324,0.04532l-0.83336,0.0516l-0.83198,0.06042l-0.83083,0.06923l-0.83071,0.07678l-0.82944,0.08559l-0.82829,0.0944l-0.82829,0.10196l-0.82564,0.10951l-0.82576,0.11958l-0.82323,0.12587l-0.82323,0.13594l-0.82069,0.14349l-0.81943,0.15231l-0.81816,0.16111l-0.81563,0.16868l-0.81574,0.17622l-0.81183,0.18629l-0.81068,0.19386l-0.8093,0.2014l-0.80688,0.2102l-0.80434,0.21906l-0.80181,0.22647l-0.79928,0.23545l-0.79801,0.24294l-0.79548,0.25042l-0.79179,0.25929l-0.79053,0.26689l-0.78788,0.27437l-0.7842,0.28324l-0.78166,0.29083l-0.77924,0.29832l-0.7766,0.3058l-0.7728,0.31467l-0.75783,0.31593l-0.76658,0.3286l-0.76405,0.33608l-0.76025,0.34357l-0.75645,0.35128l-0.75403,0.35865l-0.74896,0.3651l-0.74643,0.37385l-0.74136,0.38007l-0.73883,0.38778l-0.73388,0.39515l-0.73008,0.40286l-0.72628,0.41035l-0.72122,0.41783l-0.71753,0.42428l-0.71373,0.43165l-0.70855,0.43936l-0.70371,0.44558l-0.6998,0.45444l-0.69485,0.45939l-0.68978,0.46826l-0.68598,0.47448l-0.67977,0.48093l-0.67585,0.48829l-0.67102,0.49601l-0.66583,0.50223l-0.66077,0.50856l-0.65455,0.51478l-0.65075,0.52237l-0.64453,0.52871l-0.64062,0.53492l-0.6344,0.54126l-0.62945,0.54759l-0.623,0.55507l-0.61805,0.56014l-0.61299,0.56636l-0.60804,0.57154l-0.60159,0.57902l-0.59917,0.58651l-0.33735,0.33482l-0.58662,0.59284l-0.58271,0.5979l-0.57534,0.60424l-0.57016,0.61045l-0.56394,0.61425l-0.55761,0.62059l-0.55127,0.62565l-0.54506,0.63187l-0.53872,0.63682l-0.53251,0.642l-0.52606,0.64695l-0.51869,0.65202l-0.51351,0.65708l-0.50603,0.66342l-0.49843,0.6671l-0.49348,0.67343l-0.48461,0.67712l-0.47954,0.6823l-0.47206,0.68725l-0.46446,0.69232l-0.45686,0.69727l-0.45064,0.70118l-0.44431,0.70613l-0.43556,0.70993l-0.42923,0.715l-0.42163,0.71868l-0.41415,0.72375l-0.40781,0.72755l-0.39906,0.73135l-0.39273,0.7363l-0.38513,0.74021l-0.37765,0.7439l-0.37005,0.74643l-0.36257,0.7515l-0.35623,0.75518l-0.34737,0.75771l-0.34115,0.76163l-0.33482,0.769l-0.18629,0.43683l-0.32089,0.77038l-0.31352,0.7728l-0.3058,0.77544l-0.29832,0.77913l-0.29083,0.78166l-0.28312,0.78546l-0.27575,0.78673l-0.26677,0.79041l-0.25929,0.79179l-0.25054,0.79548l-0.24294,0.79675l-0.23534,0.80054l-0.22659,0.80181l-0.21905,0.80434l-0.2102,0.80688l-0.2014,0.80814l-0.19384,0.81183l-0.18629,0.81194l-0.17623,0.81436l-0.16993,0.81689l-0.15986,0.81689l-0.1523,0.82069l-0.14349,0.82069l-0.13594,0.82196l-0.12713,0.82449l-0.11833,0.82576l-0.11076,0.82564l-0.10196,0.82829l-0.0944,0.82829l-0.08559,0.82944l-0.07678,0.83083l-0.06923,0.83071l-0.06041,0.83198l-0.05287,0.83336l-0.04405,0.83324l-0.03524,0.83324l-0.02896,0.83463l-0.02014,0.83451l-0.01133,0.83451l-0.00378,0.82196l0.00378,0.83451l0.01133,0.83463l0.02014,0.83451l0.02769,0.83451l0.03651,0.83324l0.04405,0.83336l0.05287,0.83198l0.06041,0.83198l0.06923,0.83209l0.07678,0.82944l0.08559,0.83083l0.09315,0.82818l0.10195,0.82703l0.11077,0.82703l0.11833,0.82438l0.12712,0.82449l0.13595,0.82196l0.14349,0.82069l0.1523,0.82069l0.15986,0.81689l0.16868,0.81689l0.17748,0.81448l0.18502,0.81309l0.19384,0.81068l0.20266,0.80803l0.2102,0.80688l0.21777,0.80434l0.22786,0.80147l0.23407,0.80135l0.24294,0.7979l0.2518,0.79444l0.25802,0.79214l0.26804,0.79099l0.27449,0.78638l0.28312,0.78523l0.29083,0.78063l0.29832,0.78063l0.30592,0.77487l0.3134,0.77487l0.31593,0.7576l0.32975,0.76681l0.33608,0.7622l0.34368,0.7622l0.3499,0.75645l0.35877,0.75184l0.36625,0.75069l0.37258,0.74493l0.38145,0.74263l0.38766,0.73803l0.39526,0.73342l0.40275,0.73112l0.40908,0.72536l0.41795,0.72306l0.42416,0.71615l0.43176,0.71385l0.43925,0.70809l0.44685,0.70464l0.45318,0.69888l0.27483,0.41449h-4.87765l-0.22567,-0.36268l-0.45318,-0.74954l-0.44685,-0.75299l-0.43798,-0.75875l-0.4305,-0.76105l-0.42301,-0.76681l-0.4153,-0.77026l-0.40666,-0.77372l-0.40021,-0.77947l-0.39146,-0.78178l-0.38398,-0.78638l-0.37627,-0.78984l-0.36763,-0.79329l-0.36118,-0.79675l-0.35243,-0.80135l-0.34367,-0.80365l-0.33231,-0.79329l-0.32853,-0.81056l-0.32098,-0.81286l-0.31342,-0.81747l-0.30462,-0.82092l-0.29705,-0.82208l-0.28951,-0.82668l-0.27944,-0.82783l-0.27315,-0.83244l-0.26308,-0.83474l-0.25552,-0.83704l-0.2467,-0.83935l-0.23791,-0.8428l-0.23034,-0.8451l-0.22028,-0.84706l-0.21273,-0.84844l-0.20392,-0.85213l-0.1951,-0.85339l-0.18629,-0.85466l-0.17748,-0.85846l-0.16866,-0.85846l-0.15987,-0.86099l-0.15105,-0.86226l-0.14223,-0.86352l-0.13343,-0.86468l-0.12587,-0.86606l-0.1158,-0.86848l-0.107,-0.86859l-0.09818,-0.86974l-0.09064,-0.86974l-0.08055,-0.87239l-0.07301,-0.87101l-0.06293,-0.87354l-0.05539,-0.87227l-0.04657,-0.87354l-0.03776,-0.87366l-0.0302,-0.87354l-0.02015,-0.87481l-0.01258,-0.87354l-0.00503,-0.87481l0.00378,-0.85972l0.01258,-0.87354l0.0214,-0.87481l0.02895,-0.87354l0.03776,-0.87354l0.04532,-0.87366l0.05538,-0.87227l0.06293,-0.87354l0.07301,-0.87101l0.08056,-0.87112l0.08937,-0.87101l0.09818,-0.86974l0.107,-0.86859l0.1158,-0.86721l0.12461,-0.86606l0.13217,-0.86594l0.14224,-0.86352l0.15105,-0.86226l0.15986,-0.86099l0.16868,-0.85846l0.17747,-0.85719l0.18504,-0.85593l0.19511,-0.85339l0.20265,-0.85213l0.21273,-0.84844l0.22028,-0.84706l0.22909,-0.84591l0.2379,-0.84211l0.24671,-0.83958l0.25552,-0.83704l0.26308,-0.83578l0.27188,-0.83198l0.27944,-0.82829l0.28951,-0.82703l0.2958,-0.82311l0.30462,-0.81943l0.31342,-0.81701l0.32098,-0.81436l0.32853,-0.81068l0.33607,-0.80676l0.1989,-0.46446l0.34737,-0.79813l0.35623,-0.79928l0.3651,-0.79421l0.37258,-0.79179l0.38007,-0.78788l0.38766,-0.7842l0.39653,-0.78051l0.40401,-0.77533l0.41161,-0.7728l0.41921,-0.76785l0.4267,-0.76405l0.43556,-0.76036l0.44178,-0.75391l0.45064,-0.7515l0.45813,-0.74643l0.46573,-0.74136l0.47206,-0.73641l0.48081,-0.73123l0.48714,-0.72755l0.49589,-0.72133l0.50234,-0.71742l0.50971,-0.7112l0.51731,-0.70613l0.52364,-0.70118l0.53124,-0.696l0.53746,-0.68978l0.54506,-0.68483l0.55254,-0.67965l0.55761,-0.67343l0.56521,-0.66837l0.57269,-0.66215l0.57776,-0.65697l0.58409,-0.65075l0.59157,-0.64453l0.59664,-0.63947l0.60297,-0.63314l0.60919,-0.6268l0.61552,-0.62059l0.35877,-0.35623l0.62059,-0.60919l0.6306,-0.60665l0.63694,-0.59917l0.64189,-0.5941l0.64833,-0.58662l0.65328,-0.58155l0.6595,-0.57396l0.66583,-0.569l0.6709,-0.56129l0.67723,-0.55392l0.6823,-0.54874l0.68725,-0.54126l0.69358,-0.53377l0.69853,-0.52733l0.7036,-0.51996l0.70993,-0.51351l0.71373,-0.50476l0.71995,-0.49843l0.72502,-0.49221l0.72881,-0.48334l0.73515,-0.47574l0.73883,-0.46953l0.7439,-0.46066l0.74896,-0.45444l0.75276,-0.44558l0.75771,-0.43809l0.76278,-0.4305l0.76531,-0.4229l0.77038,-0.41541l0.77533,-0.40781l0.77798,-0.39895l0.78293,-0.39146l0.78546,-0.38398l0.79041,-0.37638l0.79306,-0.36878l0.79801,-0.36003l0.79928,-0.35243l0.80434,-0.34486l0.79421,-0.33104l0.80941,-0.32979l0.81436,-0.32098l0.81689,-0.31342l0.81954,-0.30462l0.82311,-0.29705l0.82576,-0.28826l0.82956,-0.28069l0.83198,-0.27188l0.83451,-0.26308l0.83704,-0.25552l0.83958,-0.24671l0.84211,-0.23916l0.84464,-0.22909l0.84706,-0.22153l0.84971,-0.21147l0.85086,-0.20391l0.85339,-0.19511l0.85604,-0.18629l0.85719,-0.17748l0.85846,-0.16866l0.86088,-0.15987l0.86226,-0.1523l0.86479,-0.14224l0.86468,-0.13342l0.86606,-0.12461l0.86721,-0.1158l0.86859,-0.107l0.86974,-0.09943l0.87112,-0.08937l0.87101,-0.08056l0.87227,-0.07301l0.87227,-0.0642l0.87227,-0.05413l0.87366,-0.04657l0.87481,-0.03902l0.87354,-0.02895l0.87354,-0.0214l0.87481,-0.01258l0.87354,-0.00378l0.86099,0.00378l0.87354,0.01258l0.87354,0.02014l0.87366,0.02896l0.87354,0.03776l0.87354,0.04657l0.87354,0.05413l0.87227,0.06419l0.87239,0.07175l0.87101,0.08056l0.86974,0.08937l0.86974,0.09818l0.86859,0.107l0.86721,0.11579l0.86732,0.12462l0.86479,0.13342l0.86341,0.14224l0.86226,0.15105l0.86099,0.1586l0.85972,0.16866l0.85719,0.17748l0.85466,0.18629l0.85339,0.19384l0.85213,0.20392l0.84971,0.21147l0.84706,0.22153l0.84441,0.22909l0.8428,0.2379l0.8405,0.24671l0.83704,0.25427l0.83474,0.26433l0.83129,0.27063l0.83013,0.28069l0.82553,0.28826l0.82323,0.29705l0.82092,0.30462l0.81632,0.31217l0.81402,0.32098l0.81056,0.32852l0.80596,0.33734l0.4663,0.19767l0.7979,0.34737l0.7979,0.3575l0.79559,0.36372l0.79214,0.37258l0.78638,0.38145l0.78523,0.38766l0.77947,0.39526l0.77602,0.40401l0.77372,0.41161l0.76796,0.41921l0.76336,0.42796l0.75875,0.43418l0.7553,0.44316l0.75184,0.45064l0.74493,0.45686l0.74148,0.46573l0.73687,0.47333l0.73227,0.47954l0.72651,0.48841l0.72191,0.49463l0.71615,0.50349l0.7127,0.50982l0.70579,0.51604l0.70118,0.52491l0.69658,0.52997l0.68967,0.53872l0.68506,0.54506l0.67931,0.55127l0.67355,0.55887l0.66894,0.56521l0.66204,0.57142l0.65513,0.57776l0.65052,0.58535l0.64592,0.59031l0.63786,0.5979l0.63325,0.60297l0.62749,0.60919l0.62174,0.61552l0.35577,0.3575l0.60907,0.62174l0.60562,0.63072l0.59986,0.63567l0.5941,0.64189l0.5872,0.64822l0.58029,0.65455l0.57568,0.65962l0.56762,0.66457l0.56072,0.6709l0.55611,0.67723l0.5469,0.68218l0.54114,0.68852l0.53539,0.69232l0.52617,0.69865l0.52042,0.70487l0.51236,0.70867l0.5066,0.715l0.49854,0.71868l0.49048,0.72502l0.48472,0.73008l0.47551,0.73388l0.46861,0.7401l0.4617,0.7439l0.45364,0.7477l0.44673,0.75403l0.43752,0.75771l0.43061,0.76151l0.4237,0.76658l0.41449,0.77038l0.40758,0.77406l0.39952,0.77913l0.39146,0.78178l0.38456,0.78661l0.37535,0.78926l0.36844,0.79421l0.35923,0.79686l0.35462,0.80054l0.34311,0.80308l0.33274,0.79421l0.32814,0.81068l0.32123,0.81309l0.31317,0.81689l0.30511,0.82069l0.29705,0.82196l0.28899,0.82703l0.27978,0.82818l0.27172,0.83209l0.26366,0.83451l0.2556,0.83704l0.24754,0.83958l0.23718,0.84338l0.22912,0.84464l0.22221,0.84706l0.21185,0.84844l0.20494,0.85213l0.19458,0.85339l0.18652,0.85466l0.17731,0.85846l0.1681,0.85846l0.16004,0.86099l0.15083,0.86226l0.14277,0.86352l0.13356,0.86468l0.12435,0.86732l0.11744,0.86721l0.10708,0.86859l0.09787,0.86974l0.09096,0.86974l0.0806,0.87112l0.07254,0.87227l0.06333,0.87354l0.05527,0.87227l0.04605,0.87354l0.038,0.87366l0.02994,0.87354l0.02072,0.87481l0.01267,0.87354l0.00461,0.87481v0.01888l-0.00345,0.84084z"></path><path d="M197.2466,234.99925c0,-42.94168 34.81154,-77.75311 77.75311,-77.75311c42.94295,0 77.75449,34.81143 77.75449,77.75311c0,17.25748 -5.62212,33.20136 -15.1347,46.10126h-20.0234l17.84387,-10.1965v-22.13052l-19.23126,10.9899v-21.97865l19.23126,-10.98875v-22.13098l-19.23126,10.98875v22.13098l-19.07802,10.98875v-21.9775l-19.07859,10.98875v21.97865l19.07859,-10.9899v22.13052l-17.70236,10.1965h-8.85734l-17.70225,-10.1965v-22.13052l19.07848,10.9899v-21.97865l-19.07848,-10.98875v21.9775l-19.07859,-10.98875v-22.13098l-19.23092,-10.98875v22.13098l19.23092,10.98875v21.97865l-19.23092,-10.9899v22.13052l17.84364,10.1965h-20.02168c-9.51247,-12.8999 -15.13459,-28.84379 -15.13459,-46.10126zM233.79014,281.10051v-21.33711l19.07859,11.14062v10.1965zM297.13069,281.10051v-10.1965l19.07802,-11.14062v21.33711zM255.92112,177.65018l19.07859,10.98875l-19.07859,10.9899l-19.07732,-10.9899l-19.23092,10.9899l19.23092,11.14108l19.07732,-11.14108l19.07859,11.14108l-19.07859,10.98875l19.07859,10.9899l19.07859,-10.9899l-19.07859,-10.98875l19.07859,-11.14108l19.07813,11.14108l19.23126,-11.14108l-19.23126,-10.9899l-19.07813,10.9899l-19.07859,-10.9899l19.07859,-10.98875l-19.07859,-11.14234z"></path></g><g><path d="M159.26443,311.18416c0,-0.42968 -0.14323,-0.60871 -0.5371,-0.60871h-1.75452c-0.39387,0 -0.42968,0.28645 -0.48339,0.64452c-0.14323,0.85935 -0.91306,1.21742 -1.87984,1.21742c-1.18161,0 -1.98726,-0.64452 -1.98726,-1.79032v-3.72387c0,-1.1279 0.80564,-1.79032 1.98726,-1.79032c0.96677,0 1.46806,0.26855 1.84403,0.85935c0.14323,0.21484 0.16113,0.555 0.5371,0.555h1.71871c0.41177,0 0.555,-0.08952 0.555,-0.51919c-0.23274,-2.27371 -2.43484,-3.40161 -4.65484,-3.40161c-2.13048,0 -4.79806,1.23532 -4.79806,4.04613v4.22516c0,2.8108 2.66758,4.04613 4.79806,4.04613c2.22,0 4.65484,-1.45016 4.65484,-3.75968z" data-paper-data="{&quot;glyphName&quot;:&quot;C&quot;,&quot;glyphIndex&quot;:0,&quot;firstGlyphOfWord&quot;:true,&quot;word&quot;:1}" fill-rule="nonzero"></path><path d="M165.99604,306.51142l2.61387,7.62677c0.14323,0.42968 0.28645,0.5371 0.68032,0.5371h2.04097c0.39387,0 0.39387,-0.28645 0.30435,-0.50129l-3.95661,-10.72403c-0.16113,-0.37597 -0.34016,-0.555 -0.73403,-0.555h-1.71871c-0.39387,0 -0.59081,0.17903 -0.73403,0.555l-3.97451,10.72403c-0.08952,0.21484 -0.08952,0.50129 0.30435,0.50129h1.95145c0.39387,0 0.5371,-0.10742 0.68032,-0.5371z" data-paper-data="{&quot;glyphName&quot;:&quot;Λ&quot;,&quot;glyphIndex&quot;:1,&quot;word&quot;:1}" fill-rule="nonzero"></path><path d="M178.77893,307.83626c-0.71613,-0.28645 -3.3479,-0.68032 -3.3479,-1.77242c0,-0.80564 0.98468,-1.03839 1.57548,-1.03839c0.5371,0 1.18161,0.16113 1.52177,0.48339c0.21484,0.21484 0.30435,0.35806 0.37597,0.5371c0.08952,0.23274 0.14323,0.48339 0.48339,0.48339h1.75452c0.41177,0 0.51919,-0.07161 0.51919,-0.50129c0,-2.36322 -2.48855,-3.40161 -4.76226,-3.40161c-2.2379,0.08952 -4.35048,1.23532 -4.35048,3.56274c0,2.27371 1.665,2.98984 3.47322,3.56274c1.52177,0.48339 3.11516,0.50129 3.11516,1.50387c0,1.00258 -0.78774,1.21742 -1.75452,1.21742c-0.66242,0 -1.39645,-0.16113 -1.75452,-0.59081c-0.23274,-0.26855 -0.32226,-0.50129 -0.34016,-0.73403c-0.03581,-0.44758 -0.23274,-0.50129 -0.64452,-0.50129h-1.73661c-0.41177,0 -0.51919,0.08952 -0.51919,0.50129c0,2.50645 2.57806,3.79548 4.81597,3.79548c2.7571,0 4.76226,-1.21742 4.76226,-3.75968c0,-2.43484 -1.89774,-2.95403 -3.18677,-3.3479z" data-paper-data="{&quot;glyphName&quot;:&quot;S&quot;,&quot;glyphIndex&quot;:2,&quot;word&quot;:1}" fill-rule="nonzero"></path><path d="M193.13731,311.18416c0,-0.42968 -0.14323,-0.60871 -0.5371,-0.60871h-1.75452c-0.39387,0 -0.42968,0.28645 -0.48339,0.64452c-0.14323,0.85935 -0.91306,1.21742 -1.87984,1.21742c-1.18161,0 -1.98726,-0.64452 -1.98726,-1.79032v-3.72387c0,-1.1279 0.80564,-1.79032 1.98726,-1.79032c0.96677,0 1.46806,0.26855 1.84403,0.85935c0.14323,0.21484 0.16113,0.555 0.5371,0.555h1.71871c0.41177,0 0.555,-0.08952 0.555,-0.51919c-0.23274,-2.27371 -2.43484,-3.40161 -4.65484,-3.40161c-2.13048,0 -4.79806,1.23532 -4.79806,4.04613v4.22516c0,2.8108 2.66758,4.04613 4.79806,4.04613c2.22,0 4.65484,-1.45016 4.65484,-3.75968z" data-paper-data="{&quot;glyphName&quot;:&quot;C&quot;,&quot;glyphIndex&quot;:3,&quot;word&quot;:1}" fill-rule="nonzero"></path><path d="M199.86892,306.51142l2.61387,7.62677c0.14323,0.42968 0.28645,0.5371 0.68032,0.5371h2.04097c0.39387,0 0.39387,-0.28645 0.30435,-0.50129l-3.95661,-10.72403c-0.16113,-0.37597 -0.34016,-0.555 -0.73403,-0.555h-1.71871c-0.39387,0 -0.59081,0.17903 -0.73403,0.555l-3.97451,10.72403c-0.08952,0.21484 -0.08952,0.50129 0.30435,0.50129h1.95145c0.39387,0 0.5371,-0.10742 0.68032,-0.5371z" data-paper-data="{&quot;glyphName&quot;:&quot;Λ&quot;,&quot;glyphIndex&quot;:4,&quot;word&quot;:1}" fill-rule="nonzero"></path><path d="M211.63133,302.89497h-4.01032c-0.41177,0 -0.51919,0.19694 -0.51919,0.51919v10.74193c0,0.32226 0.10742,0.51919 0.51919,0.51919h4.01032c2.13048,0 4.81597,-1.21742 4.81597,-4.02822v-3.72387c0,-2.7929 -2.68548,-4.02822 -4.81597,-4.02822zM213.6365,310.39642c0,1.14581 -0.82355,1.79032 -2.00516,1.79032h-1.71871v-6.80322h1.71871c1.18161,0 2.00516,0.66242 2.00516,1.79032z" data-paper-data="{&quot;glyphName&quot;:&quot;D&quot;,&quot;glyphIndex&quot;:5,&quot;word&quot;:1}" fill-rule="nonzero"></path><path d="M223.85923,312.22255h-1.1279v-6.83903h1.07419c0.41177,0 0.51919,-0.19694 0.51919,-0.51919v-1.45016c0,-0.32226 -0.10742,-0.51919 -0.51919,-0.51919h-4.97709c-0.41177,0 -0.51919,0.19694 -0.51919,0.51919v1.45016c0,0.32226 0.10742,0.51919 0.51919,0.51919h1.0921v6.83903h-1.1279c-0.41177,0 -0.51919,0.19694 -0.51919,0.51919v1.41435c0,0.32226 0.10742,0.51919 0.51919,0.51919h5.06661c0.41177,0 0.51919,-0.19694 0.51919,-0.51919v-1.41435c0,-0.32226 -0.10742,-0.51919 -0.51919,-0.51919z" data-paper-data="{&quot;glyphName&quot;:&quot;I&quot;,&quot;glyphIndex&quot;:6,&quot;word&quot;:1}" fill-rule="nonzero"></path><path d="M235.72906,302.89497h-1.71871c-0.32226,0 -0.51919,0.10742 -0.51919,0.51919v6.21242l-3.79548,-6.1229c-0.23274,-0.35806 -0.35806,-0.60871 -0.80564,-0.60871h-1.6829c-0.41177,0 -0.51919,0.19694 -0.51919,0.51919v10.74193c0,0.41177 0.19694,0.51919 0.51919,0.51919h1.77242c0.32226,0 0.51919,-0.10742 0.51919,-0.51919v-6.23032l3.79548,6.1408c0.23274,0.35806 0.35806,0.60871 0.80564,0.60871h1.62919c0.41177,0 0.51919,-0.19694 0.51919,-0.51919v-10.74193c0,-0.41177 -0.19694,-0.51919 -0.51919,-0.51919z" data-paper-data="{&quot;glyphName&quot;:&quot;N&quot;,&quot;glyphIndex&quot;:7,&quot;word&quot;:1}" fill-rule="nonzero"></path><path d="M247.65261,308.10481h-3.9208c-0.41177,0 -0.51919,0.19694 -0.51919,0.51919v1.39645c0,0.32226 0.10742,0.51919 0.51919,0.51919h1.61129c0,1.37855 -0.82355,1.91564 -1.98726,1.91564c-1.18161,0 -1.96935,-0.66242 -1.96935,-1.80822v-3.59855c0,-1.14581 0.78774,-1.93355 1.96935,-1.93355c1.19952,0 1.84403,0.5371 2.04097,1.0921c0.08952,0.25065 0.0179,0.60871 0.51919,0.60871h1.73661c0.41177,0 0.51919,-0.07161 0.51919,-0.50129c0,-2.39903 -2.57806,-3.68806 -4.81597,-3.68806c-2.11258,0 -4.81597,1.19952 -4.81597,4.02822v4.40419c0,2.8108 2.70339,3.885 4.81597,3.885c2.04097,0 4.65484,-1.14581 4.81597,-3.72387v-2.59597c0,-0.32226 -0.10742,-0.51919 -0.51919,-0.51919z" data-paper-data="{&quot;glyphName&quot;:&quot;G&quot;,&quot;glyphIndex&quot;:8,&quot;lastGlyphOfWord&quot;:true,&quot;word&quot;:1}" fill-rule="nonzero"></path><path d="M263.28211,302.89497h-8.30709c-0.41177,0 -0.51919,0.19694 -0.51919,0.51919v1.48597c0,0.32226 0.10742,0.51919 0.51919,0.51919h2.7571v8.73677c0,0.41177 0.19694,0.51919 0.51919,0.51919h1.77242c0.32226,0 0.51919,-0.10742 0.51919,-0.51919v-8.73677h2.73919c0.41177,0 0.51919,-0.19694 0.51919,-0.51919v-1.48597c0,-0.32226 -0.10742,-0.51919 -0.51919,-0.51919z" data-paper-data="{&quot;glyphName&quot;:&quot;T&quot;,&quot;glyphIndex&quot;:9,&quot;firstGlyphOfWord&quot;:true,&quot;word&quot;:2}" fill-rule="nonzero"></path><path d="M273.63017,312.18674h-7.91322c-0.32226,0 -0.51919,0.10742 -0.51919,0.51919v1.46806c0,0.41177 0.19694,0.51919 0.51919,0.51919h7.91322c0.32226,0 0.51919,-0.10742 0.51919,-0.51919v-1.46806c0,-0.41177 -0.19694,-0.51919 -0.51919,-0.51919zM272.73501,307.5319h-6.1229c-0.32226,0 -0.51919,0.10742 -0.51919,0.51919v1.46806c0,0.41177 0.19694,0.51919 0.51919,0.51919h6.1229c0.32226,0 0.51919,-0.10742 0.51919,-0.51919v-1.46806c0,-0.41177 -0.19694,-0.51919 -0.51919,-0.51919zM273.63017,302.91287h-7.91322c-0.32226,0 -0.51919,0.10742 -0.51919,0.51919v1.46806c0,0.41177 0.19694,0.51919 0.51919,0.51919h7.91322c0.32226,0 0.51919,-0.10742 0.51919,-0.51919v-1.46806c0,-0.41177 -0.19694,-0.51919 -0.51919,-0.51919z" data-paper-data="{&quot;glyphName&quot;:&quot;ξ&quot;,&quot;glyphIndex&quot;:10,&quot;word&quot;:2}" fill-rule="nonzero"></path><path d="M285.4821,311.18416c0,-0.42968 -0.14323,-0.60871 -0.5371,-0.60871h-1.75452c-0.39387,0 -0.42968,0.28645 -0.48339,0.64452c-0.14323,0.85935 -0.91306,1.21742 -1.87984,1.21742c-1.18161,0 -1.98726,-0.64452 -1.98726,-1.79032v-3.72387c0,-1.1279 0.80564,-1.79032 1.98726,-1.79032c0.96677,0 1.46806,0.26855 1.84403,0.85935c0.14323,0.21484 0.16113,0.555 0.5371,0.555h1.71871c0.41177,0 0.555,-0.08952 0.555,-0.51919c-0.23274,-2.27371 -2.43484,-3.40161 -4.65484,-3.40161c-2.13048,0 -4.79806,1.23532 -4.79806,4.04613v4.22516c0,2.8108 2.66758,4.04613 4.79806,4.04613c2.22,0 4.65484,-1.45016 4.65484,-3.75968z" data-paper-data="{&quot;glyphName&quot;:&quot;C&quot;,&quot;glyphIndex&quot;:11,&quot;word&quot;:2}" fill-rule="nonzero"></path><path d="M296.81484,302.89497h-1.77242c-0.32226,0 -0.51919,0.10742 -0.51919,0.51919v4.04613h-3.99242v-4.04613c0,-0.41177 -0.17903,-0.51919 -0.51919,-0.51919h-1.77242c-0.32226,0 -0.51919,0.10742 -0.51919,0.51919v10.74193c0,0.41177 0.19694,0.51919 0.51919,0.51919h1.77242c0.34016,0 0.51919,-0.10742 0.51919,-0.51919v-4.04613h3.99242v4.04613c0,0.41177 0.19694,0.51919 0.51919,0.51919h1.77242c0.32226,0 0.51919,-0.10742 0.51919,-0.51919v-10.74193c0,-0.41177 -0.19694,-0.51919 -0.51919,-0.51919z" data-paper-data="{&quot;glyphName&quot;:&quot;H&quot;,&quot;glyphIndex&quot;:12,&quot;lastGlyphOfWord&quot;:true,&quot;word&quot;:2}" fill-rule="nonzero"></path><path d="M310.38548,307.83626c-0.71613,-0.28645 -3.3479,-0.68032 -3.3479,-1.77242c0,-0.80564 0.98468,-1.03839 1.57548,-1.03839c0.5371,0 1.18161,0.16113 1.52177,0.48339c0.21484,0.21484 0.30435,0.35806 0.37597,0.5371c0.08952,0.23274 0.14323,0.48339 0.48339,0.48339h1.75452c0.41177,0 0.51919,-0.07161 0.51919,-0.50129c0,-2.36322 -2.48855,-3.40161 -4.76226,-3.40161c-2.2379,0.08952 -4.35048,1.23532 -4.35048,3.56274c0,2.27371 1.665,2.98984 3.47322,3.56274c1.52177,0.48339 3.11516,0.50129 3.11516,1.50387c0,1.00258 -0.78774,1.21742 -1.75452,1.21742c-0.66242,0 -1.39645,-0.16113 -1.75452,-0.59081c-0.23274,-0.26855 -0.32226,-0.50129 -0.34016,-0.73403c-0.03581,-0.44758 -0.23274,-0.50129 -0.64452,-0.50129h-1.73661c-0.41177,0 -0.51919,0.08952 -0.51919,0.50129c0,2.50645 2.57806,3.79548 4.81597,3.79548c2.7571,0 4.76226,-1.21742 4.76226,-3.75968c0,-2.43484 -1.89774,-2.95403 -3.18677,-3.3479z" data-paper-data="{&quot;glyphName&quot;:&quot;S&quot;,&quot;glyphIndex&quot;:13,&quot;firstGlyphOfWord&quot;:true,&quot;word&quot;:3}" fill-rule="nonzero"></path><path d="M324.92289,306.67255c0,-2.82871 -2.68548,-4.04613 -4.81597,-4.04613c-2.13048,0 -4.78016,1.21742 -4.78016,4.04613v4.22516c0,2.82871 2.64968,4.04613 4.78016,4.04613c2.13048,0 4.81597,-1.21742 4.81597,-4.04613zM322.11208,310.64706c0,1.14581 -0.82355,1.80822 -2.00516,1.80822c-1.16371,0 -1.98726,-0.66242 -1.98726,-1.80822v-3.72387c0,-1.14581 0.82355,-1.80822 1.98726,-1.80822c1.18161,0 2.00516,0.66242 2.00516,1.80822z" data-paper-data="{&quot;glyphName&quot;:&quot;O&quot;,&quot;glyphIndex&quot;:14,&quot;word&quot;:3}" fill-rule="nonzero"></path><path d="M335.18143,312.16884h-5.15613v-8.75467c0,-0.41177 -0.19694,-0.51919 -0.51919,-0.51919h-1.77242c-0.32226,0 -0.51919,0.10742 -0.51919,0.51919v10.74193c0,0.32226 0.10742,0.51919 0.51919,0.51919h7.44774c0.41177,0 0.51919,-0.19694 0.51919,-0.51919v-1.46806c0,-0.32226 -0.10742,-0.51919 -0.51919,-0.51919z" data-paper-data="{&quot;glyphName&quot;:&quot;L&quot;,&quot;glyphIndex&quot;:15,&quot;word&quot;:3}" fill-rule="nonzero"></path><path d="M346.44256,302.89497h-1.77242c-0.32226,0 -0.51919,0.10742 -0.51919,0.51919v7.26871c0,1.1279 -0.75194,1.77242 -1.93355,1.77242c-1.18161,0 -1.91564,-0.64452 -1.91564,-1.77242v-7.26871c0,-0.41177 -0.19694,-0.51919 -0.51919,-0.51919h-1.77242c-0.32226,0 -0.51919,0.10742 -0.51919,0.51919v7.66258c0,2.8108 2.59597,3.86709 4.72645,3.86709c2.13048,0 4.74435,-1.05629 4.74435,-3.86709v-7.66258c0,-0.41177 -0.19694,-0.51919 -0.51919,-0.51919z" data-paper-data="{&quot;glyphName&quot;:&quot;U&quot;,&quot;glyphIndex&quot;:16,&quot;word&quot;:3}" fill-rule="nonzero"></path><path d="M357.43513,302.89497h-8.30709c-0.41177,0 -0.51919,0.19694 -0.51919,0.51919v1.48597c0,0.32226 0.10742,0.51919 0.51919,0.51919h2.7571v8.73677c0,0.41177 0.19694,0.51919 0.51919,0.51919h1.77242c0.32226,0 0.51919,-0.10742 0.51919,-0.51919v-8.73677h2.73919c0.41177,0 0.51919,-0.19694 0.51919,-0.51919v-1.48597c0,-0.32226 -0.10742,-0.51919 -0.51919,-0.51919z" data-paper-data="{&quot;glyphName&quot;:&quot;T&quot;,&quot;glyphIndex&quot;:17,&quot;word&quot;:3}" fill-rule="nonzero"></path><path d="M364.86496,312.22255h-1.1279v-6.83903h1.07419c0.41177,0 0.51919,-0.19694 0.51919,-0.51919v-1.45016c0,-0.32226 -0.10742,-0.51919 -0.51919,-0.51919h-4.97709c-0.41177,0 -0.51919,0.19694 -0.51919,0.51919v1.45016c0,0.32226 0.10742,0.51919 0.51919,0.51919h1.0921v6.83903h-1.1279c-0.41177,0 -0.51919,0.19694 -0.51919,0.51919v1.41435c0,0.32226 0.10742,0.51919 0.51919,0.51919h5.06661c0.41177,0 0.51919,-0.19694 0.51919,-0.51919v-1.41435c0,-0.32226 -0.10742,-0.51919 -0.51919,-0.51919z" data-paper-data="{&quot;glyphName&quot;:&quot;I&quot;,&quot;glyphIndex&quot;:18,&quot;word&quot;:3}" fill-rule="nonzero"></path><path d="M376.94964,306.67255c0,-2.82871 -2.68548,-4.04613 -4.81597,-4.04613c-2.13048,0 -4.78016,1.21742 -4.78016,4.04613v4.22516c0,2.82871 2.64968,4.04613 4.78016,4.04613c2.13048,0 4.81597,-1.21742 4.81597,-4.04613zM374.13883,310.64706c0,1.14581 -0.82355,1.80822 -2.00516,1.80822c-1.16371,0 -1.98726,-0.66242 -1.98726,-1.80822v-3.72387c0,-1.14581 0.82355,-1.80822 1.98726,-1.80822c1.18161,0 2.00516,0.66242 2.00516,1.80822z" data-paper-data="{&quot;glyphName&quot;:&quot;O&quot;,&quot;glyphIndex&quot;:19,&quot;word&quot;:3}" fill-rule="nonzero"></path><path d="M388.28237,302.89497h-1.71871c-0.32226,0 -0.51919,0.10742 -0.51919,0.51919v6.21242l-3.79548,-6.1229c-0.23274,-0.35806 -0.35806,-0.60871 -0.80564,-0.60871h-1.6829c-0.41177,0 -0.51919,0.19694 -0.51919,0.51919v10.74193c0,0.41177 0.19694,0.51919 0.51919,0.51919h1.77242c0.32226,0 0.51919,-0.10742 0.51919,-0.51919v-6.23032l3.79548,6.1408c0.23274,0.35806 0.35806,0.60871 0.80564,0.60871h1.62919c0.41177,0 0.51919,-0.19694 0.51919,-0.51919v-10.74193c0,-0.41177 -0.19694,-0.51919 -0.51919,-0.51919z" data-paper-data="{&quot;glyphName&quot;:&quot;N&quot;,&quot;glyphIndex&quot;:20,&quot;word&quot;:3}" fill-rule="nonzero"></path><path d="M397.00124,307.83626c-0.71613,-0.28645 -3.3479,-0.68032 -3.3479,-1.77242c0,-0.80564 0.98468,-1.03839 1.57548,-1.03839c0.5371,0 1.18161,0.16113 1.52177,0.48339c0.21484,0.21484 0.30435,0.35806 0.37597,0.5371c0.08952,0.23274 0.14323,0.48339 0.48339,0.48339h1.75452c0.41177,0 0.51919,-0.07161 0.51919,-0.50129c0,-2.36322 -2.48855,-3.40161 -4.76226,-3.40161c-2.2379,0.08952 -4.35048,1.23532 -4.35048,3.56274c0,2.27371 1.665,2.98984 3.47322,3.56274c1.52177,0.48339 3.11516,0.50129 3.11516,1.50387c0,1.00258 -0.78774,1.21742 -1.75452,1.21742c-0.66242,0 -1.39645,-0.16113 -1.75452,-0.59081c-0.23274,-0.26855 -0.32226,-0.50129 -0.34016,-0.73403c-0.03581,-0.44758 -0.23274,-0.50129 -0.64452,-0.50129h-1.73661c-0.41177,0 -0.51919,0.08952 -0.51919,0.50129c0,2.50645 2.57806,3.79548 4.81597,3.79548c2.7571,0 4.76226,-1.21742 4.76226,-3.75968c0,-2.43484 -1.89774,-2.95403 -3.18677,-3.3479z" data-paper-data="{&quot;glyphName&quot;:&quot;S&quot;,&quot;glyphIndex&quot;:21,&quot;lastGlyphOfWord&quot;:true,&quot;word&quot;:3}" fill-rule="nonzero"></path><path d="M144.48757,284.17811c-0.05043,0 -0.10071,0.00269 -0.15083,0.00806c-0.0502,0.00461 -0.10002,0.0119 -0.14945,0.02188c-0.04943,0.00998 -0.09825,0.02226 -0.14645,0.03684c-0.0482,0.01458 -0.0956,0.03147 -0.14219,0.05066c-0.04659,0.01919 -0.09211,0.04068 -0.13655,0.06448c-0.04444,0.02379 -0.08762,0.04989 -0.12953,0.07829c-0.04191,0.02763 -0.08236,0.05757 -0.12135,0.08981c-0.03892,0.03147 -0.07622,0.06524 -0.11191,0.10132c-0.03562,0.03531 -0.06939,0.07254 -0.10132,0.11168c-0.03201,0.03915 -0.06202,0.07944 -0.09004,0.12089c-0.02802,0.04222 -0.05388,0.08558 -0.0776,0.1301c-0.02379,0.04452 -0.04533,0.08981 -0.06459,0.13586c-0.01927,0.04682 -0.03623,0.09441 -0.05089,0.14277c-0.01466,0.04836 -0.0269,0.0971 -0.03673,0.14622c-0.00982,0.04989 -0.01719,0.09979 -0.02211,0.14968c-0.00499,0.04989 -0.00748,0.10017 -0.00748,0.15083v45.86696c0,0.07138 0.00491,0.142 0.01474,0.21185c0.00982,0.07062 0.02445,0.14008 0.04387,0.2084c0.01942,0.06831 0.04348,0.13509 0.07219,0.20034c0.02871,0.06524 0.06175,0.12819 0.09913,0.18882c0.03738,0.06064 0.07875,0.11821 0.12412,0.1727c0.04536,0.0545 0.0943,0.10593 0.1468,0.15428c0.0525,0.04759 0.10804,0.09173 0.1666,0.13241c0.05864,0.03991 0.11974,0.07599 0.1833,0.10823l22.93336,11.46645c0.04513,0.02226 0.09123,0.04222 0.13828,0.05987c0.04705,0.01842 0.09491,0.03416 0.14358,0.04721c0.04859,0.01382 0.09771,0.02495 0.14737,0.03339c0.04974,0.00844 0.09975,0.0142 0.15002,0.01727c0.05028,0.00384 0.10059,0.00499 0.15094,0.00345c0.05035,-0.00154 0.10055,-0.00537 0.1506,-0.01151c0.04997,-0.00614 0.09955,-0.01497 0.14876,-0.02648c0.04912,-0.01075 0.0976,-0.02418 0.14542,-0.0403c0.04782,-0.01612 0.09476,-0.03416 0.14081,-0.05411c0.04598,-0.02072 0.09088,-0.04375 0.13471,-0.06908c0.04375,-0.02456 0.0862,-0.05143 0.12734,-0.0806c0.04114,-0.02917 0.08075,-0.06025 0.11882,-0.09326c0.03807,-0.03301 0.07442,-0.06793 0.10903,-0.10477c0.03469,-0.03684 0.06751,-0.07484 0.09844,-0.11399c0.03086,-0.03991 0.05972,-0.08136 0.08658,-0.12435c0.02687,-0.04298 0.05154,-0.08674 0.07403,-0.13126c0.10838,-0.21646 0.16257,-0.44596 0.16257,-0.68852v-9.92708h212.07985v9.92708c0,0.05066 0.00269,0.10094 0.00806,0.15083c0.00461,0.04989 0.0119,0.09979 0.02188,0.14968c0.00998,0.04912 0.02226,0.09787 0.03684,0.14622c0.01458,0.04836 0.03147,0.09595 0.05066,0.14277c0.01919,0.04605 0.04068,0.09134 0.06448,0.13586c0.02379,0.04452 0.04989,0.08789 0.07829,0.1301c0.02763,0.04145 0.05757,0.08175 0.08981,0.12089c0.03147,0.03915 0.06524,0.07637 0.10132,0.11168c0.03531,0.03608 0.07254,0.06985 0.11168,0.10132c0.03915,0.03224 0.07944,0.06217 0.12089,0.08981c0.04222,0.0284 0.08558,0.0545 0.1301,0.07829c0.04452,0.02379 0.08981,0.04529 0.13586,0.06448c0.04682,0.01919 0.09441,0.03608 0.14277,0.05066c0.04836,0.01458 0.0971,0.02687 0.14622,0.03684c0.04989,0.00998 0.09979,0.01727 0.14968,0.02188c0.04989,0.00537 0.10017,0.00806 0.15083,0.00806c0.24255,0 0.47206,-0.05411 0.68852,-0.16234l22.9329,-11.46645c0.06371,-0.03224 0.12473,-0.06831 0.18307,-0.10823c0.05834,-0.04068 0.11399,-0.08482 0.16695,-0.13241c0.0522,-0.04836 0.10094,-0.09979 0.14622,-0.15428c0.04529,-0.0545 0.08674,-0.11207 0.12435,-0.1727c0.03761,-0.06064 0.07062,-0.12358 0.09902,-0.18882c0.0284,-0.06524 0.05258,-0.13202 0.07254,-0.20034c0.01919,-0.06831 0.03377,-0.13778 0.04375,-0.2084c0.00998,-0.06985 0.01497,-0.14047 0.01497,-0.21185v-45.86696c0,-0.05066 -0.00269,-0.10094 -0.00806,-0.15083c-0.00461,-0.04989 -0.0119,-0.09979 -0.02188,-0.14968c-0.00998,-0.04912 -0.02226,-0.09787 -0.03684,-0.14622c-0.01458,-0.04836 -0.03147,-0.09595 -0.05066,-0.14277c-0.01919,-0.04605 -0.04068,-0.09134 -0.06448,-0.13586c-0.02379,-0.04452 -0.04989,-0.08789 -0.07829,-0.1301c-0.02763,-0.04145 -0.05757,-0.08175 -0.08981,-0.12089c-0.03147,-0.03915 -0.06524,-0.07637 -0.10132,-0.11168c-0.03531,-0.03608 -0.07254,-0.06985 -0.11168,-0.10132c-0.03915,-0.03224 -0.07944,-0.06217 -0.12089,-0.08981c-0.04222,-0.0284 -0.08558,-0.0545 -0.1301,-0.07829c-0.04452,-0.02379 -0.08981,-0.04529 -0.13586,-0.06448c-0.04682,-0.01919 -0.09441,-0.03608 -0.14277,-0.05066c-0.04836,-0.01458 -0.0971,-0.02687 -0.14622,-0.03684c-0.04989,-0.00998 -0.09979,-0.01727 -0.14968,-0.02188c-0.04989,-0.00537 -0.10017,-0.00806 -0.15083,-0.00806zM189.48493,330.04507h193.09425c0.05066,0 0.10094,0.00269 0.15083,0.00806c0.04989,0.00461 0.09979,0.0119 0.14968,0.02188c0.04912,0.00998 0.09787,0.02226 0.14622,0.03684c0.04836,0.01458 0.09595,0.03147 0.14277,0.05066c0.04605,0.01919 0.09134,0.04068 0.13586,0.06448c0.04452,0.02379 0.08789,0.04989 0.1301,0.07829c0.04145,0.02763 0.08175,0.05757 0.12089,0.08981c0.03915,0.03147 0.07637,0.06524 0.11168,0.10132c0.03608,0.03531 0.06985,0.07254 0.10132,0.11168c0.03224,0.03915 0.06217,0.07944 0.08981,0.12089c0.0284,0.04222 0.0545,0.08558 0.07829,0.1301c0.02379,0.04452 0.04529,0.08981 0.06448,0.13586c0.01919,0.04682 0.03608,0.09441 0.05066,0.14277c0.01458,0.04836 0.02687,0.0971 0.03684,0.14622c0.00998,0.04989 0.01727,0.09979 0.02188,0.14968c0.00537,0.04989 0.00806,0.10017 0.00806,0.15083v8.97605l19.85415,-9.92708v-43.37655h-257.94612v43.37655l19.8553,9.92708v-8.97605c0,-0.05066 0.00249,-0.10094 0.00748,-0.15083c0.00491,-0.04989 0.01228,-0.09979 0.02211,-0.14968c0.00982,-0.04912 0.02207,-0.09787 0.03673,-0.14622c0.01466,-0.04836 0.03162,-0.09595 0.05089,-0.14277c0.01927,-0.04605 0.0408,-0.09134 0.06459,-0.13586c0.02372,-0.04452 0.04959,-0.08789 0.0776,-0.1301c0.02802,-0.04145 0.05803,-0.08175 0.09004,-0.12089c0.03193,-0.03915 0.0657,-0.07637 0.10132,-0.11168c0.03569,-0.03608 0.073,-0.06985 0.11191,-0.10132c0.03899,-0.03224 0.07944,-0.06217 0.12135,-0.08981c0.04191,-0.0284 0.08509,-0.0545 0.12953,-0.07829c0.04444,-0.02379 0.08996,-0.04529 0.13655,-0.06448c0.04659,-0.01919 0.09399,-0.03608 0.14219,-0.05066c0.0482,-0.01458 0.09702,-0.02687 0.14645,-0.03684c0.04943,-0.00998 0.09925,-0.01727 0.14945,-0.02188c0.05012,-0.00537 0.1004,-0.00806 0.15083,-0.00806z" fill-rule="evenodd"></path><path d="M142.94854,285.71749v45.86696c0,0.04989 0.00246,0.10017 0.00737,0.15083c0.00499,0.04989 0.0124,0.09979 0.02222,0.14968c0.00982,0.04912 0.02207,0.09787 0.03673,0.14622c0.01458,0.04836 0.03155,0.09556 0.05089,0.14162c0.01927,0.04682 0.04076,0.09249 0.06448,0.13701c0.02379,0.04452 0.0497,0.0875 0.07772,0.12895c0.02802,0.04222 0.05799,0.0829 0.08992,0.12204c0.03201,0.03915 0.06582,0.07637 0.10144,0.11168c0.03562,0.03531 0.07292,0.06908 0.11191,0.10132c0.03899,0.03224 0.07944,0.06217 0.12135,0.08981c0.04191,0.0284 0.08509,0.0545 0.12953,0.07829c0.04444,0.02379 0.08992,0.04529 0.13644,0.06448c0.04659,0.01919 0.09403,0.03608 0.14231,0.05066c0.0482,0.01458 0.09702,0.02687 0.14645,0.03684c0.04943,0.00998 0.09925,0.01727 0.14945,0.02188c0.05012,0.00461 0.1004,0.00691 0.15083,0.00691h261.02452c0.05066,0 0.10094,-0.0023 0.15083,-0.00691c0.04989,-0.00461 0.09979,-0.0119 0.14968,-0.02188c0.04912,-0.00998 0.09787,-0.02226 0.14622,-0.03684c0.04836,-0.01458 0.09556,-0.03147 0.14162,-0.05066c0.04682,-0.01919 0.09249,-0.04068 0.13701,-0.06448c0.04452,-0.02379 0.08789,-0.04989 0.1301,-0.07829c0.04145,-0.02763 0.08175,-0.05757 0.12089,-0.08981c0.03915,-0.03224 0.07637,-0.06601 0.11168,-0.10132c0.03608,-0.03531 0.06985,-0.07254 0.10132,-0.11168c0.03224,-0.03915 0.06217,-0.07983 0.08981,-0.12204c0.0284,-0.04145 0.0545,-0.08443 0.07829,-0.12895c0.02379,-0.04452 0.04529,-0.09019 0.06448,-0.13701c0.01919,-0.04605 0.03608,-0.09326 0.05066,-0.14162c0.01458,-0.04836 0.02687,-0.0971 0.03684,-0.14622c0.00998,-0.04989 0.01727,-0.09979 0.02188,-0.14968c0.00537,-0.05066 0.00806,-0.10094 0.00806,-0.15083v-45.86696c0,-0.05066 -0.00269,-0.10094 -0.00806,-0.15083c-0.00461,-0.04989 -0.0119,-0.09979 -0.02188,-0.14968c-0.00998,-0.04912 -0.02226,-0.09787 -0.03684,-0.14622c-0.01458,-0.04836 -0.03147,-0.09595 -0.05066,-0.14277c-0.01919,-0.04605 -0.04068,-0.09134 -0.06448,-0.13586c-0.02379,-0.04452 -0.04989,-0.08789 -0.07829,-0.1301c-0.02763,-0.04145 -0.05757,-0.08175 -0.08981,-0.12089c-0.03147,-0.03915 -0.06524,-0.07637 -0.10132,-0.11168c-0.03531,-0.03608 -0.07254,-0.06985 -0.11168,-0.10132c-0.03915,-0.03224 -0.07944,-0.06217 -0.12089,-0.08981c-0.04222,-0.0284 -0.08558,-0.0545 -0.1301,-0.07829c-0.04452,-0.02379 -0.09019,-0.04529 -0.13701,-0.06448c-0.04605,-0.01919 -0.09326,-0.03608 -0.14162,-0.05066c-0.04836,-0.01458 -0.0971,-0.02687 -0.14622,-0.03684c-0.04989,-0.00998 -0.09979,-0.01727 -0.14968,-0.02188c-0.04989,-0.00537 -0.10017,-0.00806 -0.15083,-0.00806h-261.02452c-0.05043,0 -0.10071,0.00269 -0.15083,0.00806c-0.0502,0.00461 -0.10002,0.0119 -0.14945,0.02188c-0.04943,0.00998 -0.09825,0.02226 -0.14645,0.03684c-0.04828,0.01458 -0.09572,0.03147 -0.14231,0.05066c-0.04652,0.01919 -0.09199,0.04068 -0.13644,0.06448c-0.04444,0.02379 -0.08762,0.04989 -0.12953,0.07829c-0.04191,0.02763 -0.08236,0.05757 -0.12135,0.08981c-0.03899,0.03147 -0.0763,0.06524 -0.11191,0.10132c-0.03562,0.03531 -0.06943,0.07254 -0.10144,0.11168c-0.03193,0.03915 -0.06191,0.07944 -0.08992,0.12089c-0.02802,0.04222 -0.05392,0.08558 -0.07772,0.1301c-0.02372,0.04452 -0.04521,0.08981 -0.06448,0.13586c-0.01934,0.04682 -0.03631,0.09441 -0.05089,0.14277c-0.01466,0.04836 -0.0269,0.0971 -0.03673,0.14622c-0.00982,0.04989 -0.01723,0.09979 -0.02222,0.14968c-0.00491,0.04989 -0.00737,0.10017 -0.00737,0.15083zM146.02648,330.04507v-42.78821h257.94623v42.78821z" fill-rule="evenodd"></path></g><g data-paper-data="{&quot;isContainerElementsWrapper&quot;:true}" fill-rule="evenodd"><path d="M274.9996,106c-71.24467,0 -128.99983,57.75516 -128.99983,128.99983c0,16.24289 3.00207,31.7846 8.48154,46.10069h40.71955c-7.85047,-13.55963 -12.34402,-29.30537 -12.34402,-46.10069c0,-50.8891 41.25366,-92.14276 92.14277,-92.14276c50.88864,0 92.14323,41.25366 92.14323,92.14276c0,16.79532 -4.49378,32.54105 -12.34379,46.10069h40.7192c5.47935,-14.31608 8.48096,-29.85779 8.48096,-46.10069c0,-71.24467 -57.75481,-128.99983 -128.9996,-128.99983zM259.34839,119.44116l3.50476,4.18464l2.52264,-4.84057c0.14001,-0.25307 0.35969,-0.39595 0.65893,-0.42854c0.23511,-0.02556 0.44316,0.03558 0.62416,0.18353c0.18099,0.14791 0.28431,0.33942 0.30995,0.57453c0.02084,0.19239 -0.00438,0.35727 -0.07599,0.49486l-2.99378,5.72712l0.57741,5.30607c0.02556,0.23511 -0.03546,0.44443 -0.18307,0.62819c-0.14761,0.18362 -0.33908,0.28824 -0.57419,0.31384c-0.2297,0.025 -0.43775,-0.03616 -0.62416,-0.18349c-0.18629,-0.14739 -0.29222,-0.33851 -0.31789,-0.57362l-0.57741,-5.30607l-4.14756,-4.94995c-0.10604,-0.12907 -0.16891,-0.28439 -0.18859,-0.46607c-0.02568,-0.23511 0.03535,-0.44454 0.18307,-0.62819c0.14761,-0.18376 0.33896,-0.2883 0.57407,-0.31386c0.29924,-0.03258 0.54172,0.05999 0.72766,0.27759zM284.68063,119.24531l-1.54721,11.08328c-0.03258,0.23419 0.02199,0.44535 0.16395,0.63337c0.14196,0.18813 0.3301,0.29843 0.5644,0.33113c0.23419,0.0327 0.44535,-0.02188 0.63337,-0.16384c0.18813,-0.14208 0.29843,-0.3301 0.33113,-0.5644l1.04567,-7.48998l2.82821,8.37269c0.11744,0.36374 0.35186,0.57012 0.70325,0.61917c0.32469,0.04533 0.58927,-0.06155 0.79364,-0.32066l5.06532,-7.36026l-1.04567,7.48993c-0.0327,0.23422 0.02199,0.44537 0.16395,0.63344c0.14196,0.18806 0.3301,0.29843 0.5644,0.33113c0.23419,0.0327 0.44535,-0.02195 0.63337,-0.16393c0.18813,-0.14199 0.29843,-0.3301 0.33113,-0.56433l1.54721,-11.08328c0.01635,-0.11709 0.01048,-0.2305 -0.01762,-0.34023c-0.02809,-0.10984 -0.0753,-0.20863 -0.14173,-0.29659c-0.06643,-0.08796 -0.14864,-0.1605 -0.24639,-0.21761c-0.09787,-0.05711 -0.2054,-0.09384 -0.3225,-0.11007c-0.3088,-0.04318 -0.58017,0.07369 -0.81413,0.35036l-6.12757,8.90524l-3.45456,-10.2429c-0.12792,-0.32722 -0.35692,-0.51385 -0.68702,-0.55991c-0.12239,-0.01716 -0.23718,-0.0114 -0.34426,0.01704c-0.10708,0.02844 -0.2046,0.07588 -0.29256,0.14231c-0.08796,0.06643 -0.1605,0.14853 -0.21761,0.24639c-0.05711,0.09787 -0.09384,0.2054 -0.11019,0.3225zM253.12779,131.73756c0.12515,-0.2218 0.15912,-0.44183 0.10178,-0.66024l-0.96035,-3.65731c-0.02867,-0.10915 -0.07841,-0.20863 -0.14922,-0.29843c-0.07081,-0.08969 -0.15382,-0.16246 -0.24904,-0.21807c-0.0951,-0.0555 -0.19792,-0.09245 -0.30834,-0.11076c-0.1103,-0.01819 -0.22014,-0.01301 -0.32929,0.01566l-2.98664,0.78431c-0.11963,0.03143 -0.22336,0.08083 -0.31121,0.14841c-0.08785,0.06747 -0.15958,0.14887 -0.21519,0.24397c-0.0555,0.09522 -0.09084,0.19896 -0.10581,0.31121c-0.01497,0.11237 -0.00737,0.22567 0.02257,0.34c0.06148,0.23396 0.19232,0.40939 0.3925,0.52629c0.20018,0.11698 0.41725,0.14473 0.65121,0.08324l2.15225,-0.56509l0.63486,2.41741c-0.61379,0.68908 -1.39108,1.15717 -2.33209,1.40426c-1.27372,0.33446 -2.47505,0.17199 -3.60401,-0.48738c-1.12247,-0.65552 -1.85094,-1.62013 -2.18541,-2.89389c-0.33309,-1.26846 -0.17178,-2.46392 0.48369,-3.58639c0.6633,-1.13548 1.62907,-1.86982 2.89764,-2.20291c0.53539,-0.14058 1.06283,-0.19021 1.58221,-0.14876c0.51938,0.04145 1.01758,0.16626 1.49459,0.37442c0.20736,0.11226 0.4176,0.14047 0.63072,0.08451c0.11433,-0.03005 0.2168,-0.07921 0.30718,-0.14737c0.0905,-0.06828 0.16349,-0.14991 0.2191,-0.24513c0.05557,-0.09518 0.09119,-0.19761 0.10685,-0.3073c0.01566,-0.10973 0.00783,-0.22429 -0.0236,-0.34391c-0.06417,-0.24432 -0.18679,-0.41495 -0.36786,-0.5119c-1.44577,-0.6595 -2.90685,-0.79548 -4.38336,-0.40781c-1.72072,0.45191 -3.03155,1.44911 -3.93249,2.99159c-0.89703,1.53592 -1.1197,3.1643 -0.66779,4.88513c0.45325,1.72596 1.44784,3.03747 2.98376,3.93454c1.53592,0.89706 3.16687,1.11898 4.89284,0.66575c1.45567,-0.38224 2.64169,-1.18826 3.55795,-2.41806zM301.47122,133.00763l7.40904,-9.29376c0.27863,-0.31824 0.59526,-0.42209 0.94988,-0.31167c0.36383,0.11364 0.56532,0.37914 0.60447,0.79663l0.81517,11.90056c0.00921,0.11542 -0.00461,0.23215 -0.04145,0.35018c-0.07023,0.22577 -0.20955,0.39339 -0.4191,0.50285c-0.2084,0.10946 -0.42601,0.12899 -0.65167,0.05858c-0.22567,-0.07042 -0.39031,-0.20916 -0.49509,-0.41623c-0.05642,-0.10771 -0.09096,-0.21414 -0.10247,-0.31931l-0.28439,-4.10008l-3.93997,-1.22897l-2.57215,3.20952c-0.07023,0.07956 -0.15889,0.14758 -0.26597,0.20408c-0.20878,0.10946 -0.42601,0.12899 -0.65167,0.05858c-0.22682,-0.07042 -0.39262,-0.20956 -0.49969,-0.41744c-0.10708,-0.20787 -0.1255,-0.42469 -0.05411,-0.65048c0.03838,-0.12315 0.10477,-0.2375 0.19919,-0.34305zM309.13356,130.34678l-0.26136,-3.87354l-2.41672,3.03822zM235.6245,131.66694c0.72974,1.62257 0.77767,3.26889 0.14381,4.93898c-0.63118,1.66297 -1.75802,2.85934 -3.38053,3.58909c-1.62749,0.73196 -3.27272,0.78236 -4.93567,0.15119c-1.66303,-0.63117 -2.86053,-1.76049 -3.59249,-3.38796c-0.72974,-1.62257 -0.77901,-3.26534 -0.14784,-4.92832c0.63383,-1.67013 1.76205,-2.86996 3.38467,-3.59981c1.61767,-0.72751 3.26155,-0.77433 4.93165,-0.14047c0.83854,0.31824 1.55561,0.7561 2.15098,1.31336c0.59541,0.55734 1.07722,1.24532 1.44542,2.06394zM327.87089,132.80228c-0.58489,-1.68776 -1.67639,-2.91857 -3.27218,-3.69264l-2.23365,-1.08367c-0.10708,-0.05158 -0.21761,-0.07967 -0.33159,-0.0844c-0.11399,-0.00461 -0.22221,0.0099 -0.32584,0.04364c-0.10286,0.0337 -0.19765,0.08773 -0.28439,0.16211c-0.0875,0.07438 -0.15659,0.16476 -0.2084,0.27115l-4.88294,10.06894c-0.05143,0.10639 -0.07944,0.21671 -0.08405,0.33096c-0.00461,0.11424 0.01151,0.22222 0.04836,0.32394c0.038,0.10172 0.09326,0.196 0.1681,0.28284c0.07369,0.08685 0.16465,0.15608 0.27057,0.20768l2.2348,1.08365c1.6004,0.77639 3.24109,0.87319 4.92209,0.29039c1.6879,-0.5853 2.91986,-1.67833 3.69588,-3.27911c0.39377,-0.81248 0.61291,-1.62465 0.65743,-2.43652c0.0449,-0.81186 -0.0806,-1.64153 -0.37419,-2.48896zM227.79751,129.98905c-0.60781,0.27333 -1.11556,0.62842 -1.52326,1.06513c-0.40766,0.43681 -0.72881,0.96435 -0.96346,1.58263c-0.23465,0.61828 -0.3438,1.22428 -0.32722,1.81798c0.01658,0.59371 0.16154,1.19448 0.43487,1.80234c0.53799,1.1961 1.41818,2.02612 2.64054,2.49005c1.22229,0.46394 2.43157,0.42694 3.62761,-0.11101c1.19615,-0.53794 2.02617,-1.4181 2.49006,-2.64045c0.464,-1.22236 0.42693,-2.43159 -0.11099,-3.62768c-0.53577,-1.19123 -1.41484,-2.0188 -2.6372,-2.48272c-1.22943,-0.46665 -2.43974,-0.43211 -3.63095,0.10374zM323.33105,139.39097c-1.23503,0.42838 -2.44013,0.35759 -3.61529,-0.21238l-1.46569,-0.71072l4.13801,-8.53109l1.46454,0.71074c1.17094,0.56762 1.97114,1.47269 2.40175,2.71514c0.43176,1.24245 0.36268,2.44885 -0.20494,3.61921c-0.29014,0.59969 -0.65973,1.09695 -1.10877,1.4918c-0.44788,0.39485 -0.98442,0.70062 -1.60961,0.91729zM337.29252,149.47968c0.19573,0.13248 0.31586,0.3144 0.36038,0.54576c0.04529,0.23136 0.00154,0.445 -0.13126,0.64092c-0.13241,0.19592 -0.31432,0.31622 -0.54575,0.36093c-0.23142,0.0447 -0.44558,0.00082 -0.64131,-0.13166l-6.17823,-4.17734c-0.10247,-0.06924 -0.18307,-0.15028 -0.24409,-0.2431c-0.05987,-0.09282 -0.10132,-0.19335 -0.12204,-0.30157c-0.02072,-0.10822 -0.02072,-0.21668 0.00115,-0.32535c0.02188,-0.10869 0.06678,-0.21425 0.13586,-0.31665l6.26804,-9.27046c0.06678,-0.09796 0.14737,-0.17831 0.24179,-0.24105c0.09441,-0.06274 0.19573,-0.10457 0.30396,-0.12548c0.10823,-0.02091 0.21646,-0.02057 0.32469,0.00101c0.10823,0.02158 0.21415,0.067 0.31663,0.13624l6.17823,4.17734c0.19573,0.13247 0.31586,0.31438 0.36038,0.54575c0.0449,0.23137 0.00115,0.445 -0.13126,0.64093c-0.13202,0.19592 -0.31394,0.31622 -0.54575,0.36092c-0.23142,0.0447 -0.44443,0.00082 -0.64131,-0.13165l-5.47014,-3.69864l-2.17608,3.21928l3.92731,2.65543c0.19573,0.13247 0.31586,0.31439 0.36038,0.54576c0.0449,0.23136 0.00115,0.445 -0.13126,0.64092c-0.13241,0.19592 -0.31432,0.31622 -0.54575,0.36093c-0.23142,0.0447 -0.44558,0.00082 -0.64131,-0.13166l-3.92731,-2.65543l-2.17608,3.21928zM209.45326,138.37491c-0.0522,0.22978 -0.01527,0.44474 0.11076,0.64487l5.96292,9.46971c0.06597,0.10461 0.14427,0.18866 0.23511,0.25217c0.09073,0.06351 0.18986,0.10747 0.2974,0.13189c0.10746,0.02442 0.21588,0.02762 0.32526,0.00959c0.10926,-0.01803 0.21623,-0.05997 0.32089,-0.12586l5.7855,-3.64309c0.20011,-0.12602 0.3263,-0.30393 0.37857,-0.5337c0.0522,-0.22979 0.01527,-0.44475 -0.11076,-0.64488c-0.12604,-0.20013 -0.30392,-0.3263 -0.53366,-0.37851c-0.22981,-0.05221 -0.44477,-0.01531 -0.64488,0.11071l-5.06233,3.18771l-5.50767,-8.74651c-0.12604,-0.20012 -0.30392,-0.32629 -0.53366,-0.37851c-0.22981,-0.05221 -0.44477,-0.0153 -0.64488,0.11072c-0.20011,0.12602 -0.3263,0.30391 -0.37857,0.5337zM207.36918,147.52114c1.16806,1.34197 1.69032,2.90397 1.56689,4.68604c-0.12297,1.77447 -0.85535,3.24571 -2.19738,4.41377c-1.34595,1.17163 -2.90616,1.696 -4.68065,1.57311c-1.77448,-0.12297 -3.24754,-0.85746 -4.41917,-2.20348c-1.1681,-1.34196 -1.69067,-2.90018 -1.5677,-4.67466c0.12343,-1.78205 0.85616,-3.25712 2.19819,-4.42519c1.33789,-1.16455 2.89787,-1.68509 4.67996,-1.56163c0.89476,0.06199 1.70778,0.27356 2.43905,0.63472c0.73123,0.36115 1.39143,0.88027 1.98081,1.55733zM199.39148,148.17999c-0.50269,0.43759 -0.88594,0.9244 -1.14975,1.46045c-0.26382,0.53605 -0.4186,1.13395 -0.46435,1.79369c-0.04571,0.65973 0.02533,1.27136 0.21289,1.83489c0.18767,0.56351 0.50031,1.09662 0.9379,1.59933c0.86107,0.98925 1.94374,1.52905 3.248,1.6194c1.30434,0.09042 2.45114,-0.2949 3.4404,-1.15597c0.98925,-0.86111 1.52901,-1.94377 1.6194,-3.24808c0.09038,-1.30431 -0.29498,-2.4511 -1.15609,-3.44034c-0.85754,-0.98519 -1.93844,-1.52297 -3.24271,-1.61333c-1.31194,-0.09088 -2.46051,0.29244 -3.44569,1.14997zM355.41156,166.57669c0.00921,-0.23545 -0.06678,-0.43994 -0.22682,-0.61356l-4.48457,-4.8476l2.85308,-2.6387l3.21922,3.48035c0.16119,0.17351 0.35923,0.26493 0.5941,0.27414c0.23603,0.00921 0.43982,-0.06655 0.61368,-0.22705c0.17386,-0.16062 0.26481,-0.35865 0.27403,-0.5941c0.00921,-0.23545 -0.06678,-0.44005 -0.22682,-0.61368l-3.21922,-3.48023l2.85308,-2.63882l4.48342,4.8476c0.16119,0.17363 0.35923,0.26504 0.5941,0.27426c0.23603,0.0091 0.43982,-0.06655 0.61368,-0.22716c0.17386,-0.1605 0.26481,-0.35854 0.27403,-0.59399c0.00921,-0.23557 -0.06678,-0.44005 -0.22682,-0.61368l-5.06371,-5.47496c-0.08405,-0.09076 -0.17616,-0.15903 -0.27748,-0.2048c-0.10132,-0.04577 -0.20609,-0.07081 -0.31663,-0.0751c-0.11053,-0.00429 -0.21876,0.01336 -0.32469,0.05296c-0.10593,0.0396 -0.20264,0.09955 -0.28899,0.17984l-8.21615,7.59867c-0.08981,0.08393 -0.15889,0.17639 -0.20379,0.27725c-0.04605,0.10097 -0.07138,0.20644 -0.07599,0.31663c-0.00345,0.11007 0.01267,0.21726 0.05066,0.32146c0.03761,0.10416 0.09863,0.2016 0.18307,0.29233l5.06371,5.47497c0.16004,0.17363 0.35807,0.26504 0.5941,0.27426c0.23488,0.0091 0.43982,-0.06655 0.61368,-0.22716c0.1727,-0.16062 0.26481,-0.35854 0.27403,-0.5941zM182.26204,165.03444l8.62149,7.13455c0.1822,0.15071 0.39061,0.21508 0.62521,0.19297c0.2346,-0.02211 0.42728,-0.12435 0.57807,-0.30649c0.15078,-0.18226 0.2151,-0.39066 0.19296,-0.62519c-0.02214,-0.23465 -0.12431,-0.42739 -0.30652,-0.5781l-6.69594,-5.54118l11.71472,0.34898c0.26977,-0.01393 0.48507,-0.11825 0.64615,-0.31294c0.07541,-0.09107 0.12999,-0.19067 0.16361,-0.29889c0.03374,-0.10811 0.04536,-0.21715 0.03512,-0.32687c-0.01036,-0.10973 -0.04122,-0.21369 -0.09245,-0.3119c-0.05124,-0.09821 -0.12458,-0.18675 -0.2198,-0.26562l-8.62148,-7.13455c-0.1822,-0.15083 -0.39061,-0.21508 -0.62521,-0.19297c-0.23459,0.02211 -0.42728,0.12435 -0.57807,0.30649c-0.15077,0.18226 -0.2151,0.39066 -0.19296,0.62519c0.02214,0.23465 0.12431,0.42739 0.30652,0.5781l6.70833,5.55143l-11.70955,-0.3552c-0.28144,0.01128 -0.50268,0.11425 -0.66374,0.30891c-0.07882,0.09526 -0.13422,0.19592 -0.1662,0.302c-0.03198,0.10604 -0.04279,0.21392 -0.03244,0.32376c0.01036,0.10973 0.0422,0.2145 0.09554,0.31444c0.05333,0.09994 0.12555,0.18767 0.21665,0.26309zM358.95086,171.31433l11.57238,-2.7049c0.41679,-0.07668 0.72997,0.038 0.93951,0.34403c0.21531,0.3149 0.20955,0.64822 -0.01957,0.99985l-6.73319,9.84636c-0.06448,0.09625 -0.14737,0.17927 -0.2487,0.24904c-0.19573,0.13356 -0.40873,0.17869 -0.64016,0.1354c-0.23181,-0.04344 -0.41449,-0.16273 -0.54805,-0.35784c-0.13356,-0.19512 -0.17731,-0.40628 -0.13126,-0.63348c0.02226,-0.11959 0.06141,-0.22444 0.11744,-0.31455l2.3177,-3.39411l-2.33267,-3.40632l-4.00675,0.92581c-0.10477,0.01923 -0.21646,0.01762 -0.3362,-0.00484c-0.23142,-0.04329 -0.41334,-0.16257 -0.5469,-0.35773c-0.13356,-0.19516 -0.17846,-0.40747 -0.13356,-0.63682c0.0449,-0.22947 0.16465,-0.41092 0.36038,-0.54448c0.10593,-0.07288 0.22912,-0.12135 0.36959,-0.14542zM187.71016,176.66185c0.20221,0.12274 0.33135,0.29843 0.38741,0.52733c0.05607,0.22889 0.02277,0.44443 -0.09987,0.64661c-0.12264,0.20226 -0.2984,0.3314 -0.52728,0.38743c-0.22888,0.05603 -0.44442,0.02276 -0.64663,-0.09982l-4.0535,-2.45851l-2.98105,4.9153l4.0535,2.4584c0.20222,0.12266 0.33136,0.2984 0.38741,0.52721c0.05607,0.22889 0.02277,0.44443 -0.09987,0.64672c-0.12264,0.20218 -0.2984,0.33136 -0.52727,0.38743c-0.22888,0.05607 -0.44442,0.02268 -0.64664,-0.09994l-9.56846,-5.80323c-0.20221,-0.12262 -0.33135,-0.29832 -0.38741,-0.52721c-0.05606,-0.22889 -0.02277,-0.44443 0.09987,-0.64672c0.12264,-0.20218 0.2984,-0.33125 0.52728,-0.38732c0.22888,-0.05611 0.44442,-0.02284 0.64664,0.09982l4.05349,2.4584l2.98105,-4.91518l-4.0535,-2.4584c-0.20221,-0.12262 -0.33135,-0.29843 -0.38741,-0.52733c-0.05606,-0.22889 -0.02277,-0.44443 0.09987,-0.64661c0.12264,-0.20226 0.2984,-0.3314 0.52728,-0.38743c0.22888,-0.05603 0.44442,-0.02276 0.64664,0.09982zM366.6132,173.97307l2.1945,-3.20241l-3.77878,0.88724zM373.64919,183.55473c-0.15083,0.51892 -0.15543,1.17877 -0.01497,1.97954c0.12204,0.7021 0.13816,1.25073 0.04951,1.64599c-0.08827,0.3953 -0.22452,0.70038 -0.40873,0.91522c-0.18422,0.21484 -0.40873,0.38813 -0.67355,0.51984c-0.27863,0.13897 -0.56877,0.21726 -0.86928,0.23476c-0.30051,0.0175 -0.5872,-0.01842 -0.85892,-0.10777c-0.27287,-0.08935 -0.52387,-0.22866 -0.75299,-0.41772c-0.22912,-0.18905 -0.41219,-0.42071 -0.5492,-0.69496c-0.17501,-0.35128 -0.25791,-0.71799 -0.24985,-1.10013c0.00691,-0.38225 0.11744,-0.75219 0.32929,-1.11003c0.16349,-0.26171 0.17501,-0.53458 0.03339,-0.81839c-0.05411,-0.11065 -0.12435,-0.20218 -0.2084,-0.27437c-0.08405,-0.07231 -0.17846,-0.12596 -0.28208,-0.16096c-0.10516,-0.035 -0.21415,-0.0484 -0.32699,-0.04018c-0.11283,0.00817 -0.22221,0.03869 -0.32814,0.09142c-0.17846,0.08866 -0.30626,0.21577 -0.38686,0.38156c-0.1704,0.29533 -0.30051,0.60769 -0.38916,0.93687c-0.0875,0.32918 -0.13356,0.65835 -0.13816,0.98764c-0.00461,0.32929 0.02994,0.65328 0.10132,0.97187c0.07138,0.3187 0.17846,0.6199 0.31893,0.90382c0.42485,0.85167 1.08689,1.47052 1.98726,1.85658l-0.00345,-0.00725c1.11682,0.48265 2.23826,0.44362 3.36429,-0.11709c0.45249,-0.22521 0.8405,-0.52617 1.16288,-0.90302c0.32238,-0.37696 0.57568,-0.91131 0.7599,-1.60328c0.18422,-0.69197 0.18537,-1.5213 0.00345,-2.48799c-0.10477,-0.57223 -0.10017,-1.01389 0.01151,-1.32499c0.11283,-0.3111 0.35347,-0.55887 0.72421,-0.74344c0.20725,-0.10293 0.42025,-0.1567 0.64016,-0.16119c0.21991,-0.00438 0.42831,0.02844 0.62519,0.09844c0.19688,0.07 0.3765,0.17305 0.53769,0.30914c0.16004,0.13609 0.28669,0.29556 0.37765,0.47839c0.11514,0.23096 0.17961,0.46722 0.19458,0.70878c0.01612,0.24167 -0.03224,0.46216 -0.14277,0.66146c-0.06102,0.108 -0.11168,0.20713 -0.15428,0.29717c-0.04145,0.09004 -0.07484,0.17835 -0.09787,0.26493c-0.02303,0.08647 -0.02994,0.1742 -0.02188,0.26309c0.00806,0.089 0.03684,0.18157 0.08405,0.27782c0.05296,0.10581 0.12204,0.19608 0.20725,0.2708c0.0852,0.07461 0.17961,0.12941 0.28439,0.16453c0.10477,0.035 0.21185,0.04893 0.32238,0.04191c0.11053,-0.00702 0.22106,-0.03811 0.33274,-0.09315c0.14853,-0.07426 0.26827,-0.17869 0.35692,-0.31317c0.16925,-0.2761 0.2959,-0.55715 0.38225,-0.84303c0.0852,-0.28592 0.13356,-0.57131 0.14507,-0.85616c0.01151,-0.28485 -0.01267,-0.56244 -0.07254,-0.83301c-0.05987,-0.27046 -0.14968,-0.52606 -0.26942,-0.76658c-0.37074,-0.74585 -0.93491,-1.2756 -1.69136,-1.58935l0.00345,0.00725c-0.47091,-0.19792 -0.94182,-0.2906 -1.41273,-0.27817c-0.47206,0.01243 -0.94297,0.13609 -1.41388,0.37085c-0.38571,0.1917 -0.715,0.44408 -0.98787,0.75737c-0.27287,0.31329 -0.48472,0.72939 -0.6344,1.24831zM178.42171,189.08624c-0.08171,0.07645 -0.1455,0.16914 -0.19135,0.27817c-0.07008,0.18042 -0.08763,0.35381 -0.05264,0.52007c0.30774,1.05661 0.24379,2.10274 -0.19181,3.13816c-0.51064,1.21385 -1.37128,2.06762 -2.58194,2.56133c-1.20361,0.49083 -2.41234,0.48081 -3.62618,-0.02982c-1.20892,-0.50856 -2.05875,-1.3646 -2.54957,-2.56824c-0.49647,-1.21768 -0.49048,-2.43099 0.01808,-3.63981c0.21461,-0.51029 0.49658,-0.95886 0.84591,-1.34549c0.34921,-0.38663 0.75161,-0.70567 1.20732,-0.95713c0.2195,-0.10593 0.3699,-0.25549 0.45119,-0.44869c0.04585,-0.10903 0.06928,-0.22014 0.07029,-0.33344c0.001,-0.11329 -0.0193,-0.22095 -0.06092,-0.32307c-0.04161,-0.10201 -0.10116,-0.19274 -0.17861,-0.27195c-0.07746,-0.07921 -0.17317,-0.14277 -0.28713,-0.19078c-0.22786,-0.09579 -0.43786,-0.10259 -0.63003,-0.02003c-1.40375,0.74482 -2.40163,1.82065 -2.99355,3.22774c-0.6899,1.63993 -0.69761,3.28696 -0.02314,4.94109c0.67163,1.64699 1.82741,2.81543 3.46734,3.50533c1.64491,0.69197 3.29088,0.7021 4.93793,0.03051c1.64705,-0.67159 2.81655,-1.82987 3.50852,-3.47471c0.58359,-1.38724 0.66683,-2.81877 0.24972,-4.29459c-0.09966,-0.23442 -0.25354,-0.39538 -0.46163,-0.48288c-0.109,-0.04582 -0.22066,-0.06805 -0.33499,-0.06655c-0.11433,0.00138 -0.22128,0.02349 -0.32087,0.0662c-0.09958,0.0426 -0.19022,0.10213 -0.27194,0.17858zM373.57666,198.90589c-0.22221,0.08313 -0.43982,0.07588 -0.65398,-0.02165c-0.21531,-0.09741 -0.36383,-0.25687 -0.44673,-0.47828c-0.0829,-0.22141 -0.07599,-0.43948 0.02188,-0.65398c0.09671,-0.2145 0.25675,-0.36337 0.47782,-0.44638l10.47743,-3.93099c0.22221,-0.08313 0.43982,-0.07588 0.65398,0.02153c0.21531,0.09752 0.36383,0.25698 0.44673,0.47839c0.0829,0.22141 0.07599,0.43936 -0.02188,0.65398c-0.09671,0.2145 -0.25675,0.36337 -0.47782,0.44638zM173.78527,204.1841c0.06088,-0.22855 0.19327,-0.40194 0.39718,-0.51996c0.2039,-0.11813 0.42011,-0.14676 0.64864,-0.08589c0.22852,0.06091 0.40185,0.19331 0.51997,0.39711c0.11812,0.20391 0.14674,0.42013 0.08586,0.64868l-1.91975,7.20651c-0.03182,0.1194 -0.08165,0.22302 -0.1495,0.31064c-0.06784,0.08762 -0.14944,0.159 -0.24481,0.21427c-0.09537,0.05527 -0.19793,0.0905 -0.30769,0.1057c-0.10975,0.01531 -0.22436,0.00702 -0.34381,-0.02475l-10.81357,-2.88072c-0.11433,-0.0304 -0.21657,-0.0799 -0.30672,-0.14841c-0.09027,-0.06862 -0.16303,-0.15048 -0.21818,-0.24593c-0.05527,-0.09533 -0.0905,-0.19792 -0.10581,-0.30764c-0.01531,-0.10973 -0.00702,-0.2244 0.02487,-0.3438l1.91979,-7.20651c0.06079,-0.22855 0.1932,-0.40183 0.39711,-0.51996c0.20391,-0.11813 0.42013,-0.1468 0.64868,-0.08589c0.22855,0.06091 0.40183,0.19331 0.51996,0.39722c0.11813,0.20391 0.14668,0.42013 0.08589,0.64868l-1.69976,6.38064l3.75506,1.00031l1.22045,-4.58094c0.06079,-0.22855 0.1932,-0.40194 0.39711,-0.51996c0.20391,-0.11813 0.42013,-0.1468 0.64868,-0.08589c0.22855,0.06091 0.40183,0.1932 0.51996,0.39711c0.11813,0.20391 0.14668,0.42013 0.08589,0.64868l-1.22033,4.58094l3.75511,1.00042zM378.30532,213.22301c0.11974,-0.20253 0.15083,-0.41841 0.09211,-0.64764l-1.62573,-6.39964l3.76612,-0.95748l1.16748,4.59464c0.05872,0.22924 0.18882,0.40401 0.39146,0.52445c0.20264,0.12043 0.41795,0.15152 0.64707,0.09326c0.22951,-0.05826 0.40451,-0.18863 0.52502,-0.39112c0.12089,-0.20253 0.15198,-0.41841 0.09326,-0.64764l-1.16748,-4.59464l3.76612,-0.95736l1.62688,6.39964c0.05757,0.22912 0.18882,0.40401 0.39031,0.52445c0.20264,0.12043 0.4191,0.15152 0.64822,0.09326c0.22951,-0.05826 0.40413,-0.18867 0.52387,-0.39123c0.12089,-0.20253 0.15198,-0.41841 0.09326,-0.64764l-1.83643,-7.22793c-0.03109,-0.11974 -0.07944,-0.22383 -0.14622,-0.31225c-0.06678,-0.08842 -0.14737,-0.16073 -0.24294,-0.21703c-0.09441,-0.05642 -0.19803,-0.09245 -0.30972,-0.10834c-0.11207,-0.01581 -0.22567,-0.00917 -0.3408,0.01992l-10.84587,2.75706c-0.11974,0.0304 -0.22336,0.0791 -0.31202,0.14588c-0.08866,0.06689 -0.16004,0.14761 -0.21646,0.24236c-0.05642,0.09476 -0.09326,0.19688 -0.10938,0.30649c-0.01727,0.10961 -0.01036,0.22429 0.02072,0.34403l1.83758,7.22793c0.05757,0.22924 0.18882,0.40401 0.39031,0.52456c0.20264,0.12043 0.4191,0.15152 0.64822,0.09326c0.22912,-0.05837 0.40413,-0.18871 0.52502,-0.39123zM161.0586,217.49884l-0.37385,3.16269l10.26466,1.21319c0.23488,0.02786 0.42531,0.13425 0.57118,0.31927c0.14591,0.18502 0.20499,0.39492 0.17723,0.6298c-0.02776,0.23488 -0.13415,0.42531 -0.31918,0.57119c-0.18502,0.14588 -0.39503,0.20494 -0.6298,0.1772l-10.26466,-1.21319l-0.37385,3.16269c-0.02775,0.23488 -0.13413,0.4252 -0.31916,0.57119c-0.18502,0.14588 -0.39503,0.20494 -0.62991,0.1772c-0.23488,-0.02775 -0.4252,-0.13413 -0.57119,-0.31916c-0.14588,-0.18502 -0.20494,-0.39503 -0.1772,-0.62991l0.94826,-8.02272c0.02775,-0.23488 0.13413,-0.42531 0.31916,-0.57119c0.18502,-0.14588 0.39503,-0.20494 0.62991,-0.1772c0.23476,0.02775 0.4252,0.13413 0.57108,0.31916c0.14599,0.18502 0.20506,0.39492 0.17731,0.6298zM378.76586,219.06193l11.11989,-1.2513c0.11744,-0.01313 0.23142,-0.00426 0.33965,0.02671c0.10938,0.03109 0.20725,0.08094 0.2936,0.14968c0.0852,0.06874 0.15543,0.1514 0.20955,0.24812c0.05411,0.0966 0.08866,0.20644 0.10247,0.32929l0.34771,3.09257c0.06102,0.53953 0.01382,1.05995 -0.14047,1.56148c-0.15428,0.50142 -0.39146,0.94988 -0.70924,1.34537c-0.31778,0.39549 -0.70348,0.72421 -1.15827,0.98638c-0.45479,0.26205 -0.95218,0.42347 -1.49102,0.48415c-0.35232,0.03972 -0.70118,0.0342 -1.04429,-0.01635c-0.34426,-0.05054 -0.67355,-0.14599 -0.99017,-0.28623c-0.31547,-0.14024 -0.61483,-0.32561 -0.89807,-0.55611c-0.28324,-0.2305 -0.53999,-0.50591 -0.77026,-0.8261l-3.80642,3.01646c-0.13932,0.10765 -0.28899,0.17052 -0.44903,0.18848c-0.1232,0.01382 -0.23833,0.00507 -0.34426,-0.02625c-0.10593,-0.03132 -0.20264,-0.08129 -0.28899,-0.15002c-0.08635,-0.06874 -0.15659,-0.15279 -0.2107,-0.25215c-0.05411,-0.09936 -0.08866,-0.20771 -0.10132,-0.32526c-0.03339,-0.29912 0.07829,-0.55772 0.33505,-0.77602l4.20824,-3.33746l-0.26827,-2.38759l-4.09426,0.46066c-0.23488,0.02648 -0.44558,-0.03385 -0.6298,-0.18076c-0.18422,-0.14691 -0.28899,-0.33793 -0.31547,-0.57292c-0.02648,-0.23511 0.03339,-0.44466 0.18076,-0.62888c0.14737,-0.18422 0.3385,-0.28957 0.57338,-0.31593zM389.22832,219.6048l-4.47881,0.50384l0.25215,2.24344c0.03454,0.30972 0.12665,0.59422 0.27403,0.85339c0.14853,0.25917 0.33735,0.47736 0.56532,0.65455c0.22797,0.1772 0.48357,0.30926 0.76681,0.39653c0.28208,0.08716 0.57568,0.11352 0.88079,0.07933c0.30972,-0.03489 0.5941,-0.12642 0.85316,-0.2746c0.25944,-0.14814 0.47897,-0.33512 0.65858,-0.56095c0.18076,-0.22578 0.31432,-0.4815 0.40068,-0.76716c0.0875,-0.28554 0.11399,-0.58063 0.07944,-0.88505zM274.9996,364c-30.22128,0 -58.01536,-10.39223 -80.00346,-27.79858h160.00668c-21.98763,17.40635 -49.7816,27.79858 -80.00323,27.79858z" data-paper-data="{&quot;isBaseLogoContainer&quot;:true}"></path></g></g></g></svg>